<mxfile host="app.diagrams.net" agent="Mozilla/5.0 (Windows NT 10.0; Win64; x64) AppleWebKit/537.36 (KHTML, like Gecko) Chrome/130.0.0.0 Safari/537.36" version="24.8.3">
  <diagram id="_Zeu2Und_BIN9iEwyCzT" name="Page-1">
    <mxGraphModel dx="733" dy="1373" grid="1" gridSize="10" guides="1" tooltips="1" connect="1" arrows="1" fold="1" page="1" pageScale="1" pageWidth="1600" pageHeight="1200" math="0" shadow="0">
      <root>
        <mxCell id="0" />
        <mxCell id="1" parent="0" />
        <mxCell id="_a0-ylE22l1Moyt0WqdU-58" value="" style="shape=flexArrow;endArrow=classic;html=1;rounded=0;endWidth=183.47826086956522;endSize=58.78260869565217;width=233.0434782608696;fillColor=#b1ddf0;strokeColor=#10739e;entryX=0;entryY=0.5;entryDx=0;entryDy=0;" edge="1" parent="1">
          <mxGeometry width="50" height="50" relative="1" as="geometry">
            <mxPoint x="1710" y="666.5699999999995" as="sourcePoint" />
            <mxPoint x="2080" y="667" as="targetPoint" />
          </mxGeometry>
        </mxCell>
        <mxCell id="_a0-ylE22l1Moyt0WqdU-21" value="&lt;b style=&quot;font-size: 14px;&quot;&gt;&lt;font style=&quot;font-size: 14px;&quot;&gt;Flask&lt;/font&gt;&lt;/b&gt;" style="rounded=1;whiteSpace=wrap;html=1;verticalAlign=top;fontSize=14;" vertex="1" parent="1">
          <mxGeometry x="2590" y="102" width="490" height="500" as="geometry" />
        </mxCell>
        <mxCell id="_a0-ylE22l1Moyt0WqdU-50" value="" style="rounded=1;whiteSpace=wrap;html=1;glass=0;arcSize=40;fillColor=none;strokeColor=#56517e;strokeWidth=5;" vertex="1" parent="1">
          <mxGeometry x="2621" y="152" width="439" height="426.25" as="geometry" />
        </mxCell>
        <mxCell id="_a0-ylE22l1Moyt0WqdU-1" value="" style="image;sketch=0;aspect=fixed;html=1;points=[];align=center;fontSize=12;image=img/lib/mscae/Docker.svg;" vertex="1" parent="1">
          <mxGeometry x="1750" y="593.2" width="180" height="147.6" as="geometry" />
        </mxCell>
        <mxCell id="_a0-ylE22l1Moyt0WqdU-2" value="&lt;b style=&quot;font-size: 14px;&quot;&gt;&lt;font style=&quot;font-size: 14px;&quot;&gt;MongoDB&lt;/font&gt;&lt;/b&gt;" style="rounded=1;whiteSpace=wrap;html=1;verticalAlign=bottom;fontSize=14;" vertex="1" parent="1">
          <mxGeometry x="2632" y="672.5" width="240" height="250" as="geometry" />
        </mxCell>
        <mxCell id="_a0-ylE22l1Moyt0WqdU-3" value="&lt;b style=&quot;font-size: 14px;&quot;&gt;&lt;font color=&quot;#ff9999&quot; style=&quot;font-size: 14px;&quot;&gt;app_data&lt;/font&gt;&lt;/b&gt;" style="shape=cylinder3;whiteSpace=wrap;html=1;boundedLbl=1;backgroundOutline=1;size=15;verticalAlign=bottom;fillColor=#ffcc99;strokeColor=#36393d;fillStyle=hatch;fontSize=14;" vertex="1" parent="1">
          <mxGeometry x="2672" y="715" width="160" height="165" as="geometry" />
        </mxCell>
        <mxCell id="_a0-ylE22l1Moyt0WqdU-5" value="users" style="shape=cylinder3;whiteSpace=wrap;html=1;boundedLbl=1;backgroundOutline=1;size=15;fontSize=14;" vertex="1" parent="1">
          <mxGeometry x="2722" y="757.5" width="60" height="80" as="geometry" />
        </mxCell>
        <mxCell id="_a0-ylE22l1Moyt0WqdU-51" value="Construction de l&#39;image flask" style="edgeStyle=orthogonalEdgeStyle;rounded=0;orthogonalLoop=1;jettySize=auto;html=1;entryX=0;entryY=0.5;entryDx=0;entryDy=0;fillColor=#d0cee2;strokeColor=#56517e;strokeWidth=4;verticalAlign=bottom;fontColor=#A680B8;fontSize=13;" edge="1" parent="1" source="_a0-ylE22l1Moyt0WqdU-12" target="_a0-ylE22l1Moyt0WqdU-50">
          <mxGeometry relative="1" as="geometry" />
        </mxCell>
        <mxCell id="_a0-ylE22l1Moyt0WqdU-12" value="Dockerfile" style="rounded=1;whiteSpace=wrap;html=1;fillColor=#dae8fc;strokeColor=#6c8ebf;fontSize=14;" vertex="1" parent="1">
          <mxGeometry x="2185" y="335" width="120" height="60" as="geometry" />
        </mxCell>
        <mxCell id="_a0-ylE22l1Moyt0WqdU-13" value="init_db.py" style="rounded=1;whiteSpace=wrap;html=1;fillColor=#d0cee2;strokeColor=#56517e;fontSize=14;" vertex="1" parent="1">
          <mxGeometry x="2692" y="450.5" width="120" height="60" as="geometry" />
        </mxCell>
        <mxCell id="_a0-ylE22l1Moyt0WqdU-14" value="app.py" style="rounded=1;whiteSpace=wrap;html=1;fillColor=#d0cee2;strokeColor=#56517e;fontSize=14;" vertex="1" parent="1">
          <mxGeometry x="2853.5" y="450.5" width="120" height="60" as="geometry" />
        </mxCell>
        <mxCell id="_a0-ylE22l1Moyt0WqdU-15" value=".env" style="rounded=1;whiteSpace=wrap;html=1;fillColor=#dae8fc;strokeColor=#6c8ebf;fontSize=14;" vertex="1" parent="1">
          <mxGeometry x="2268" y="842" width="120" height="60" as="geometry" />
        </mxCell>
        <mxCell id="_a0-ylE22l1Moyt0WqdU-16" value="requirements.txt" style="rounded=1;whiteSpace=wrap;html=1;fillColor=#dae8fc;strokeColor=#6c8ebf;fontSize=14;" vertex="1" parent="1">
          <mxGeometry x="2185" y="186.5" width="120" height="60" as="geometry" />
        </mxCell>
        <mxCell id="_a0-ylE22l1Moyt0WqdU-19" style="edgeStyle=orthogonalEdgeStyle;rounded=0;orthogonalLoop=1;jettySize=auto;html=1;entryX=0;entryY=0.75;entryDx=0;entryDy=0;curved=1;shape=flexArrow;fontSize=14;exitX=1;exitY=0.25;exitDx=0;exitDy=0;fillColor=#fad7ac;strokeColor=#b46504;" edge="1" parent="1" source="_a0-ylE22l1Moyt0WqdU-17" target="_a0-ylE22l1Moyt0WqdU-21">
          <mxGeometry relative="1" as="geometry">
            <Array as="points">
              <mxPoint x="2510" y="635" />
              <mxPoint x="2510" y="477" />
            </Array>
          </mxGeometry>
        </mxCell>
        <mxCell id="_a0-ylE22l1Moyt0WqdU-20" style="edgeStyle=orthogonalEdgeStyle;rounded=0;orthogonalLoop=1;jettySize=auto;html=1;entryX=0;entryY=0.5;entryDx=0;entryDy=0;shape=flexArrow;elbow=vertical;fontSize=14;fillColor=#fad7ac;strokeColor=#b46504;" edge="1" parent="1" source="_a0-ylE22l1Moyt0WqdU-17" target="_a0-ylE22l1Moyt0WqdU-2">
          <mxGeometry relative="1" as="geometry">
            <Array as="points">
              <mxPoint x="2510" y="702" />
              <mxPoint x="2510" y="798" />
            </Array>
          </mxGeometry>
        </mxCell>
        <mxCell id="_a0-ylE22l1Moyt0WqdU-46" style="edgeStyle=orthogonalEdgeStyle;rounded=0;orthogonalLoop=1;jettySize=auto;html=1;entryX=0.5;entryY=1;entryDx=0;entryDy=0;fillColor=#d0cee2;strokeColor=#56517e;strokeWidth=1;shape=flexArrow;" edge="1" parent="1" source="_a0-ylE22l1Moyt0WqdU-17" target="_a0-ylE22l1Moyt0WqdU-12">
          <mxGeometry relative="1" as="geometry" />
        </mxCell>
        <mxCell id="_a0-ylE22l1Moyt0WqdU-17" value="docker-compose.yml" style="rounded=1;whiteSpace=wrap;html=1;fillColor=#dae8fc;strokeColor=#6c8ebf;fontSize=16;" vertex="1" parent="1">
          <mxGeometry x="2080" y="602" width="330" height="130" as="geometry" />
        </mxCell>
        <mxCell id="_a0-ylE22l1Moyt0WqdU-22" style="edgeStyle=orthogonalEdgeStyle;rounded=0;orthogonalLoop=1;jettySize=auto;html=1;entryX=0.5;entryY=0;entryDx=0;entryDy=0;entryPerimeter=0;strokeWidth=3;fillColor=#fad9d5;strokeColor=#ae4132;" edge="1" parent="1" source="_a0-ylE22l1Moyt0WqdU-13" target="_a0-ylE22l1Moyt0WqdU-5">
          <mxGeometry relative="1" as="geometry" />
        </mxCell>
        <mxCell id="_a0-ylE22l1Moyt0WqdU-25" value="&lt;font style=&quot;font-size: 19px;&quot;&gt;2&lt;/font&gt;" style="ellipse;whiteSpace=wrap;html=1;aspect=fixed;fillColor=none;strokeWidth=2;strokeColor=#FF6666;fontColor=#FF6666;fontSize=19;" vertex="1" parent="1">
          <mxGeometry x="2440" y="722" width="30" height="30" as="geometry" />
        </mxCell>
        <mxCell id="_a0-ylE22l1Moyt0WqdU-28" value="&lt;font style=&quot;font-size: 19px;&quot;&gt;3&lt;/font&gt;" style="ellipse;whiteSpace=wrap;html=1;aspect=fixed;fillColor=none;strokeWidth=2;strokeColor=#FF6666;fontColor=#FF6666;fontSize=19;" vertex="1" parent="1">
          <mxGeometry x="2440" y="589.5" width="30" height="30" as="geometry" />
        </mxCell>
        <mxCell id="_a0-ylE22l1Moyt0WqdU-37" value="&lt;font style=&quot;font-size: 14px;&quot;&gt;templates&lt;/font&gt;" style="sketch=0;pointerEvents=1;shadow=0;dashed=0;html=1;strokeColor=#56517e;labelPosition=center;verticalLabelPosition=middle;verticalAlign=bottom;outlineConnect=0;align=center;shape=mxgraph.office.concepts.folder;fillColor=#d0cee2;fontSize=15;" vertex="1" parent="1">
          <mxGeometry x="2900.5" y="344.5" width="110" height="70" as="geometry" />
        </mxCell>
        <mxCell id="_a0-ylE22l1Moyt0WqdU-41" value="&lt;font style=&quot;font-size: 14px;&quot;&gt;data&lt;/font&gt;" style="sketch=0;pointerEvents=1;shadow=0;dashed=0;html=1;strokeColor=#56517e;labelPosition=center;verticalLabelPosition=middle;verticalAlign=bottom;outlineConnect=0;align=center;shape=mxgraph.office.concepts.folder;fillColor=#d0cee2;fontSize=15;" vertex="1" parent="1">
          <mxGeometry x="2845.5" y="309.5" width="110" height="70" as="geometry" />
        </mxCell>
        <mxCell id="_a0-ylE22l1Moyt0WqdU-42" value="&lt;font style=&quot;font-size: 14px;&quot;&gt;scripts&lt;/font&gt;" style="sketch=0;pointerEvents=1;shadow=0;dashed=0;html=1;strokeColor=#56517e;labelPosition=center;verticalLabelPosition=middle;verticalAlign=bottom;outlineConnect=0;align=center;shape=mxgraph.office.concepts.folder;fillColor=#d0cee2;fontSize=15;" vertex="1" parent="1">
          <mxGeometry x="2790.5" y="274.5" width="110" height="70" as="geometry" />
        </mxCell>
        <mxCell id="_a0-ylE22l1Moyt0WqdU-43" value="&lt;font style=&quot;font-size: 14px;&quot;&gt;static&lt;/font&gt;" style="sketch=0;pointerEvents=1;shadow=0;dashed=0;html=1;strokeColor=#56517e;labelPosition=center;verticalLabelPosition=middle;verticalAlign=bottom;outlineConnect=0;align=center;shape=mxgraph.office.concepts.folder;fillColor=#d0cee2;fontSize=15;" vertex="1" parent="1">
          <mxGeometry x="2735.5" y="239.5" width="110" height="70" as="geometry" />
        </mxCell>
        <mxCell id="_a0-ylE22l1Moyt0WqdU-44" value="&lt;font style=&quot;font-size: 14px;&quot;&gt;functions&lt;/font&gt;" style="sketch=0;pointerEvents=1;shadow=0;dashed=0;html=1;strokeColor=#56517e;labelPosition=center;verticalLabelPosition=middle;verticalAlign=bottom;outlineConnect=0;align=center;shape=mxgraph.office.concepts.folder;fillColor=#d0cee2;fontSize=15;" vertex="1" parent="1">
          <mxGeometry x="2675.5" y="204.5" width="110" height="70" as="geometry" />
        </mxCell>
        <mxCell id="_a0-ylE22l1Moyt0WqdU-48" value="" style="endArrow=classic;startArrow=classic;html=1;rounded=0;entryX=0.5;entryY=1;entryDx=0;entryDy=0;exitX=0.5;exitY=0;exitDx=0;exitDy=0;fillColor=#bac8d3;strokeColor=#23445d;strokeWidth=0;shape=flexArrow;" edge="1" parent="1" source="_a0-ylE22l1Moyt0WqdU-12" target="_a0-ylE22l1Moyt0WqdU-16">
          <mxGeometry width="50" height="50" relative="1" as="geometry">
            <mxPoint x="2330" y="344" as="sourcePoint" />
            <mxPoint x="2380" y="294" as="targetPoint" />
          </mxGeometry>
        </mxCell>
        <mxCell id="_a0-ylE22l1Moyt0WqdU-52" value="" style="endArrow=classic;startArrow=classic;html=1;rounded=0;entryX=0.75;entryY=1;entryDx=0;entryDy=0;exitX=0.5;exitY=0;exitDx=0;exitDy=0;fillColor=#bac8d3;strokeColor=#23445d;strokeWidth=0;shape=flexArrow;" edge="1" parent="1" source="_a0-ylE22l1Moyt0WqdU-15" target="_a0-ylE22l1Moyt0WqdU-17">
          <mxGeometry width="50" height="50" relative="1" as="geometry">
            <mxPoint x="2360" y="852" as="sourcePoint" />
            <mxPoint x="2360" y="764" as="targetPoint" />
          </mxGeometry>
        </mxCell>
        <mxCell id="_a0-ylE22l1Moyt0WqdU-53" value="&lt;font style=&quot;font-size: 19px;&quot;&gt;1&lt;/font&gt;" style="ellipse;whiteSpace=wrap;html=1;aspect=fixed;fillColor=none;strokeWidth=2;strokeColor=#FF6666;fontColor=#FF6666;fontSize=19;" vertex="1" parent="1">
          <mxGeometry x="2200" y="548.25" width="30" height="30" as="geometry" />
        </mxCell>
        <mxCell id="_a0-ylE22l1Moyt0WqdU-56" value="&lt;font style=&quot;font-size: 19px;&quot;&gt;4&lt;/font&gt;" style="ellipse;whiteSpace=wrap;html=1;aspect=fixed;fillColor=none;strokeWidth=2;strokeColor=#FF6666;fontColor=#FF6666;fontSize=19;" vertex="1" parent="1">
          <mxGeometry x="2705.5" y="622" width="30" height="30" as="geometry" />
        </mxCell>
        <mxCell id="_a0-ylE22l1Moyt0WqdU-66" value="&lt;div style=&quot;color: rgb(204, 204, 204); font-family: Consolas, &amp;quot;Courier New&amp;quot;, monospace; text-align: left; white-space: pre;&quot;&gt;&lt;font style=&quot;font-size: 12px;&quot;&gt;&lt;span style=&quot;color: rgb(86, 156, 214);&quot;&gt;MONGO_ROOT_LOGIN&lt;/span&gt;=dstairlines&lt;/font&gt;&lt;/div&gt;&lt;div style=&quot;color: rgb(204, 204, 204); font-family: Consolas, &amp;quot;Courier New&amp;quot;, monospace; text-align: left; white-space: pre;&quot;&gt;&lt;font style=&quot;font-size: 12px;&quot;&gt;&lt;span style=&quot;color: rgb(86, 156, 214);&quot;&gt;MONGO_ROOT_PASSWORD&lt;/span&gt;=dstairlines&lt;/font&gt;&lt;/div&gt;&lt;div style=&quot;color: rgb(204, 204, 204); font-family: Consolas, &amp;quot;Courier New&amp;quot;, monospace; text-align: left; white-space: pre;&quot;&gt;&lt;font style=&quot;font-size: 12px;&quot;&gt;&lt;span style=&quot;color: rgb(86, 156, 214);&quot;&gt;FLASK_ADMIN_LOGIN&lt;/span&gt;=admin&lt;/font&gt;&lt;/div&gt;&lt;div style=&quot;color: rgb(204, 204, 204); font-family: Consolas, &amp;quot;Courier New&amp;quot;, monospace; text-align: left; white-space: pre;&quot;&gt;&lt;font style=&quot;font-size: 12px;&quot;&gt;&lt;span style=&quot;color: rgb(86, 156, 214);&quot;&gt;FLASK_ADMIN_PASSWORD&lt;/span&gt;=admin&lt;/font&gt;&lt;/div&gt;&lt;div style=&quot;color: rgb(204, 204, 204); font-family: Consolas, &amp;quot;Courier New&amp;quot;, monospace; text-align: left; white-space: pre;&quot;&gt;&lt;font style=&quot;font-size: 12px;&quot;&gt;&lt;span style=&quot;color: rgb(86, 156, 214);&quot;&gt;FLASK_USER_LOGIN&lt;/span&gt;=dstairlines&lt;/font&gt;&lt;/div&gt;&lt;div style=&quot;color: rgb(204, 204, 204); font-family: Consolas, &amp;quot;Courier New&amp;quot;, monospace; text-align: left; white-space: pre;&quot;&gt;&lt;font style=&quot;font-size: 12px;&quot;&gt;&lt;span style=&quot;color: rgb(86, 156, 214);&quot;&gt;FLASK_USER_PASSWORD&lt;/span&gt;=dstairlines&lt;/font&gt;&lt;/div&gt;&lt;div style=&quot;color: rgb(204, 204, 204); font-family: Consolas, &amp;quot;Courier New&amp;quot;, monospace; text-align: left; white-space: pre;&quot;&gt;&lt;font style=&quot;font-size: 12px;&quot;&gt;&lt;span style=&quot;color: rgb(86, 156, 214);&quot;&gt;KEY_AS&lt;/span&gt;=1029af3b615d19eabb828a556e1a14b6&lt;/font&gt;&lt;/div&gt;&lt;div style=&quot;color: rgb(204, 204, 204); font-family: Consolas, &amp;quot;Courier New&amp;quot;, monospace; text-align: left; white-space: pre;&quot;&gt;&lt;font style=&quot;font-size: 12px;&quot;&gt;&lt;span style=&quot;color: rgb(86, 156, 214);&quot;&gt;KEY_VISUALCROSSING&lt;/span&gt;=2Q5Q5GC6BTZEBEPQQMALNRTBP&lt;/font&gt;&lt;/div&gt;&lt;div style=&quot;color: rgb(204, 204, 204); font-family: Consolas, &amp;quot;Courier New&amp;quot;, monospace; text-align: left; white-space: pre;&quot;&gt;&lt;font style=&quot;font-size: 12px;&quot;&gt;&lt;span style=&quot;color: rgb(86, 156, 214);&quot;&gt;KEY_VISUALCROSSING_2&lt;/span&gt;=P5EQ8RLEBUC7CZ9ZTN8WZG4AZ&lt;/font&gt;&lt;/div&gt;&lt;div style=&quot;color: rgb(204, 204, 204); font-family: Consolas, &amp;quot;Courier New&amp;quot;, monospace; text-align: left; white-space: pre;&quot;&gt;&lt;font style=&quot;font-size: 12px;&quot;&gt;&lt;span style=&quot;color: rgb(86, 156, 214);&quot;&gt;CLIENT_ID_LH&lt;/span&gt;=xba2dh7y2xqabeamx2t7zcssx&lt;/font&gt;&lt;/div&gt;&lt;div style=&quot;color: rgb(204, 204, 204); font-family: Consolas, &amp;quot;Courier New&amp;quot;, monospace; text-align: left; white-space: pre;&quot;&gt;&lt;font style=&quot;font-size: 12px;&quot;&gt;&lt;span style=&quot;color: rgb(86, 156, 214);&quot;&gt;CLIENT_SECRET_LH&lt;/span&gt;=drAEmGMT7B&lt;/font&gt;&lt;/div&gt;" style="rounded=0;whiteSpace=wrap;html=1;strokeColor=#6c95ce;" vertex="1" parent="1">
          <mxGeometry x="2170" y="907" width="330" height="190" as="geometry" />
        </mxCell>
        <mxCell id="_a0-ylE22l1Moyt0WqdU-68" value="" style="sketch=0;pointerEvents=1;shadow=0;dashed=0;html=1;strokeColor=none;labelPosition=center;verticalLabelPosition=bottom;verticalAlign=top;outlineConnect=0;align=center;shape=mxgraph.office.security.lock_protected;fillColor=#2072B8;" vertex="1" parent="1">
          <mxGeometry x="2450" y="912" width="38" height="50" as="geometry" />
        </mxCell>
      </root>
    </mxGraphModel>
  </diagram>
</mxfile>
